<mxfile host="drawio-plugin" modified="2022-07-17T14:41:05.735Z" agent="5.0 (Windows NT 6.2; Win64; x64) AppleWebKit/537.36 (KHTML, like Gecko) Chrome/97.0.4692.45 Safari/537.36" etag="OhySzZZOH2Obm1v3EKec" version="15.5.4" type="embed"><diagram id="23iRSUPoRavnBvh4doch" name="Page-1"><mxGraphModel dx="1935" dy="844" grid="1" gridSize="10" guides="1" tooltips="1" connect="1" arrows="1" fold="1" page="1" pageScale="1" pageWidth="827" pageHeight="1169" math="0" shadow="0"><root><mxCell id="0"/><mxCell id="1" parent="0"/><mxCell id="3" value="抽象思想A" style="rounded=0;whiteSpace=wrap;html=1;" vertex="1" parent="1"><mxGeometry x="50" y="390" width="120" height="60" as="geometry"/></mxCell><mxCell id="6" value="抽象1" style="rounded=0;whiteSpace=wrap;html=1;" vertex="1" parent="1"><mxGeometry x="-80" y="570" width="80" height="40" as="geometry"/></mxCell><mxCell id="10" value="抽象2" style="rounded=0;whiteSpace=wrap;html=1;" vertex="1" parent="1"><mxGeometry x="20" y="570" width="80" height="40" as="geometry"/></mxCell><mxCell id="11" value="抽象3" style="rounded=0;whiteSpace=wrap;html=1;" vertex="1" parent="1"><mxGeometry x="150" y="570" width="80" height="40" as="geometry"/></mxCell><mxCell id="12" value="抽象4" style="rounded=0;whiteSpace=wrap;html=1;" vertex="1" parent="1"><mxGeometry x="270" y="570" width="80" height="40" as="geometry"/></mxCell><mxCell id="14" value="" style="endArrow=classic;html=1;rounded=0;" edge="1" parent="1"><mxGeometry width="50" height="50" relative="1" as="geometry"><mxPoint x="-40" y="570" as="sourcePoint"/><mxPoint x="110" y="450" as="targetPoint"/></mxGeometry></mxCell><mxCell id="15" value="" style="endArrow=classic;html=1;rounded=0;entryX=0.5;entryY=1;entryDx=0;entryDy=0;exitX=0.5;exitY=0;exitDx=0;exitDy=0;" edge="1" parent="1" source="10" target="3"><mxGeometry width="50" height="50" relative="1" as="geometry"><mxPoint x="340" y="480" as="sourcePoint"/><mxPoint x="390" y="430" as="targetPoint"/></mxGeometry></mxCell><mxCell id="16" value="" style="endArrow=classic;html=1;rounded=0;exitX=0.5;exitY=0;exitDx=0;exitDy=0;" edge="1" parent="1" source="11"><mxGeometry width="50" height="50" relative="1" as="geometry"><mxPoint x="340" y="480" as="sourcePoint"/><mxPoint x="110" y="450" as="targetPoint"/></mxGeometry></mxCell><mxCell id="17" value="" style="endArrow=classic;html=1;rounded=0;exitX=0.5;exitY=0;exitDx=0;exitDy=0;" edge="1" parent="1" source="12"><mxGeometry width="50" height="50" relative="1" as="geometry"><mxPoint x="340" y="480" as="sourcePoint"/><mxPoint x="110" y="450" as="targetPoint"/></mxGeometry></mxCell><mxCell id="18" value="(基于思想A)&lt;br&gt;业务组件A" style="rounded=1;whiteSpace=wrap;html=1;" vertex="1" parent="1"><mxGeometry x="590" y="650" width="120" height="60" as="geometry"/></mxCell><mxCell id="19" value="(基于抽象1)&lt;br&gt;业务组件1" style="rounded=1;whiteSpace=wrap;html=1;" vertex="1" parent="1"><mxGeometry x="480" y="835" width="70" height="30" as="geometry"/></mxCell><mxCell id="25" value="(基于抽象2)&lt;br&gt;业务组件2" style="rounded=1;whiteSpace=wrap;html=1;" vertex="1" parent="1"><mxGeometry x="590" y="840" width="70" height="30" as="geometry"/></mxCell><mxCell id="26" value="(基于抽象3)&lt;br&gt;业务组件3" style="rounded=1;whiteSpace=wrap;html=1;" vertex="1" parent="1"><mxGeometry x="700" y="835" width="70" height="30" as="geometry"/></mxCell><mxCell id="27" value="(基于抽象4)&lt;br&gt;业务组件4" style="rounded=1;whiteSpace=wrap;html=1;" vertex="1" parent="1"><mxGeometry x="800" y="835" width="70" height="30" as="geometry"/></mxCell><mxCell id="30" value="" style="endArrow=classic;html=1;rounded=0;entryX=0.5;entryY=1;entryDx=0;entryDy=0;exitX=0.5;exitY=0;exitDx=0;exitDy=0;" edge="1" parent="1" source="19" target="18"><mxGeometry width="50" height="50" relative="1" as="geometry"><mxPoint x="410" y="910" as="sourcePoint"/><mxPoint x="460" y="860" as="targetPoint"/></mxGeometry></mxCell><mxCell id="31" value="" style="endArrow=classic;html=1;rounded=0;exitX=0.5;exitY=0;exitDx=0;exitDy=0;" edge="1" parent="1" source="25"><mxGeometry width="50" height="50" relative="1" as="geometry"><mxPoint x="410" y="910" as="sourcePoint"/><mxPoint x="650" y="710" as="targetPoint"/></mxGeometry></mxCell><mxCell id="33" value="" style="endArrow=classic;html=1;rounded=0;" edge="1" parent="1" source="26"><mxGeometry width="50" height="50" relative="1" as="geometry"><mxPoint x="410" y="910" as="sourcePoint"/><mxPoint x="650" y="710" as="targetPoint"/></mxGeometry></mxCell><mxCell id="34" value="" style="endArrow=classic;html=1;rounded=0;entryX=0.5;entryY=1;entryDx=0;entryDy=0;exitX=0.5;exitY=0;exitDx=0;exitDy=0;" edge="1" parent="1" source="27" target="18"><mxGeometry width="50" height="50" relative="1" as="geometry"><mxPoint x="410" y="910" as="sourcePoint"/><mxPoint x="460" y="860" as="targetPoint"/></mxGeometry></mxCell><mxCell id="35" value="" style="endArrow=none;dashed=1;html=1;rounded=0;" edge="1" parent="1"><mxGeometry width="50" height="50" relative="1" as="geometry"><mxPoint x="440" y="1250" as="sourcePoint"/><mxPoint x="430" as="targetPoint"/></mxGeometry></mxCell><mxCell id="36" value="接口" style="text;html=1;strokeColor=none;fillColor=none;align=center;verticalAlign=middle;whiteSpace=wrap;rounded=0;fontSize=24;" vertex="1" parent="1"><mxGeometry x="120" y="30" width="60" height="30" as="geometry"/></mxCell><mxCell id="37" value="实现" style="text;html=1;strokeColor=none;fillColor=none;align=center;verticalAlign=middle;whiteSpace=wrap;rounded=0;fontSize=24;" vertex="1" parent="1"><mxGeometry x="590" y="30" width="86" height="30" as="geometry"/></mxCell><mxCell id="39" value="(基于思想A)&lt;br&gt;业务组件A" style="rounded=1;whiteSpace=wrap;html=1;" vertex="1" parent="1"><mxGeometry x="590" y="190" width="120" height="60" as="geometry"/></mxCell><mxCell id="40" value="(基于抽象1)&lt;br&gt;业务组件1" style="rounded=1;whiteSpace=wrap;html=1;" vertex="1" parent="1"><mxGeometry x="480" y="375" width="70" height="30" as="geometry"/></mxCell><mxCell id="41" value="(基于抽象2)&lt;br&gt;业务组件2" style="rounded=1;whiteSpace=wrap;html=1;" vertex="1" parent="1"><mxGeometry x="590" y="380" width="70" height="30" as="geometry"/></mxCell><mxCell id="42" value="(基于抽象3)&lt;br&gt;业务组件3" style="rounded=1;whiteSpace=wrap;html=1;" vertex="1" parent="1"><mxGeometry x="700" y="375" width="70" height="30" as="geometry"/></mxCell><mxCell id="43" value="(基于抽象4)&lt;br&gt;业务组件4" style="rounded=1;whiteSpace=wrap;html=1;" vertex="1" parent="1"><mxGeometry x="800" y="375" width="70" height="30" as="geometry"/></mxCell><mxCell id="44" value="" style="endArrow=classic;html=1;rounded=0;entryX=0.5;entryY=1;entryDx=0;entryDy=0;exitX=0.5;exitY=0;exitDx=0;exitDy=0;" edge="1" parent="1" source="40" target="39"><mxGeometry width="50" height="50" relative="1" as="geometry"><mxPoint x="410" y="450" as="sourcePoint"/><mxPoint x="460" y="400" as="targetPoint"/></mxGeometry></mxCell><mxCell id="45" value="" style="endArrow=classic;html=1;rounded=0;exitX=0.5;exitY=0;exitDx=0;exitDy=0;" edge="1" parent="1" source="41"><mxGeometry width="50" height="50" relative="1" as="geometry"><mxPoint x="410" y="450" as="sourcePoint"/><mxPoint x="650" y="250" as="targetPoint"/></mxGeometry></mxCell><mxCell id="46" value="" style="endArrow=classic;html=1;rounded=0;" edge="1" parent="1" source="42"><mxGeometry width="50" height="50" relative="1" as="geometry"><mxPoint x="410" y="450" as="sourcePoint"/><mxPoint x="650" y="250" as="targetPoint"/></mxGeometry></mxCell><mxCell id="47" value="" style="endArrow=classic;html=1;rounded=0;entryX=0.5;entryY=1;entryDx=0;entryDy=0;exitX=0.5;exitY=0;exitDx=0;exitDy=0;" edge="1" parent="1" source="43" target="39"><mxGeometry width="50" height="50" relative="1" as="geometry"><mxPoint x="410" y="450" as="sourcePoint"/><mxPoint x="460" y="400" as="targetPoint"/></mxGeometry></mxCell><mxCell id="48" value="功能模块1" style="text;html=1;align=center;verticalAlign=middle;resizable=0;points=[];autosize=1;strokeColor=none;fillColor=none;fontSize=24;" vertex="1" parent="1"><mxGeometry x="580" y="155" width="120" height="30" as="geometry"/></mxCell><mxCell id="49" value="功能模块2" style="text;html=1;align=center;verticalAlign=middle;resizable=0;points=[];autosize=1;strokeColor=none;fillColor=none;fontSize=24;" vertex="1" parent="1"><mxGeometry x="580" y="610" width="120" height="30" as="geometry"/></mxCell><mxCell id="50" value="抽象5" style="rounded=0;whiteSpace=wrap;html=1;fontSize=24;" vertex="1" parent="1"><mxGeometry x="-360" y="235" width="120" height="60" as="geometry"/></mxCell><mxCell id="55" value="抽象N" style="rounded=0;whiteSpace=wrap;html=1;fontSize=24;" vertex="1" parent="1"><mxGeometry x="-360" y="650" width="120" height="60" as="geometry"/></mxCell><mxCell id="56" value="&lt;span&gt;抽象6&lt;/span&gt;" style="rounded=0;whiteSpace=wrap;html=1;fontSize=24;" vertex="1" parent="1"><mxGeometry x="-360" y="385" width="120" height="60" as="geometry"/></mxCell><mxCell id="57" value="抽象..." style="rounded=0;whiteSpace=wrap;html=1;fontSize=24;" vertex="1" parent="1"><mxGeometry x="-360" y="515" width="120" height="60" as="geometry"/></mxCell><mxCell id="61" value="&lt;span style=&quot;font-size: 12px&quot;&gt;抽象颗粒度运行,抽象随意组合&lt;/span&gt;" style="text;html=1;strokeColor=none;fillColor=none;align=center;verticalAlign=middle;whiteSpace=wrap;rounded=0;fontSize=24;" vertex="1" parent="1"><mxGeometry x="-400" y="160" width="200" height="30" as="geometry"/></mxCell></root></mxGraphModel></diagram></mxfile>